<svg xmlns="http://www.w3.org/2000/svg" version="1.1" xmlns:xlink="http://www.w3.org/1999/xlink" width="200" height="200"><svg xmlns="http://www.w3.org/2000/svg" version="1.1" xmlns:xlink="http://www.w3.org/1999/xlink" viewBox="0 0 200 200"><rect width="200" height="200" fill="url('#gradient')"></rect><defs><linearGradient id="SvgjsLinearGradient1001" gradientTransform="rotate(45 0.5 0.5)"><stop offset="0%" stop-color="#a7d0cb"></stop><stop offset="100%" stop-color="#deefe6"></stop></linearGradient></defs><g><g fill="#191e27" transform="matrix(3.217877094972067,0,0,3.217877094972067,6.485993068977436,117.60053618660186)" stroke="#1b74e1" stroke-width="0.2"><path d="M4.39-15L4.39 0L1.09 0L1.09-15L4.39-15ZM9.89-10.57L9.89 0L6.59 0L6.59-10.57L9.89-10.57ZM6.40-13.29L6.40-13.29Q6.40-13.99 6.90-14.44Q7.41-14.89 8.22-14.89Q9.03-14.89 9.54-14.44Q10.05-13.99 10.05-13.29Q10.05-12.59 9.54-12.14Q9.03-11.69 8.22-11.69Q7.41-11.69 6.90-12.14Q6.40-12.59 6.40-13.29ZM12.46-13.19L15.75-13.19L15.75-10.57L17.49-10.57L17.49-8.28L15.75-8.28L15.75-3.45Q15.75-2.85 15.97-2.62Q16.18-2.38 16.82-2.38L16.82-2.38Q17.30-2.38 17.64-2.44L17.64-2.44L17.64-0.09Q16.75 0.20 15.78 0.20L15.78 0.20Q14.08 0.20 13.27-0.61Q12.46-1.41 12.46-3.04L12.46-3.04L12.46-8.28L11.11-8.28L11.11-10.57L12.46-10.57L12.46-13.19ZM25.23-10.64L25.18-7.59L24.09-7.67Q22.54-7.67 22.10-6.69L22.10-6.69L22.10 0L18.81 0L18.81-10.57L21.89-10.57L22.00-9.21Q22.83-10.76 24.32-10.76L24.32-10.76Q24.84-10.76 25.23-10.64L25.23-10.64ZM31.29 0.20L31.29 0.20Q28.86 0.20 27.35-1.25Q25.85-2.71 25.85-5.03L25.85-5.03L25.85-5.30Q25.85-6.92 26.45-8.16Q27.05-9.40 28.20-10.08Q29.36-10.76 30.94-10.76L30.94-10.76Q33.16-10.76 34.45-9.38Q35.74-8.00 35.74-5.53L35.74-5.53L35.74-4.25L29.20-4.25Q29.38-3.36 29.97-2.85Q30.57-2.34 31.51-2.34L31.51-2.34Q33.08-2.34 33.96-3.44L33.96-3.44L35.46-1.66Q34.84-0.81 33.72-0.31Q32.59 0.20 31.29 0.20ZM30.92-8.22L30.92-8.22Q29.47-8.22 29.20-6.31L29.20-6.31L32.52-6.31L32.52-6.56Q32.54-7.35 32.12-7.79Q31.70-8.22 30.92-8.22ZM36.65-5.39L36.65-5.39Q36.65-7.91 37.74-9.34Q38.84-10.76 40.76-10.76L40.76-10.76Q42.38-10.76 43.36-9.43L43.36-9.43L43.59-10.57L46.45-10.57L46.45 4.06L43.14 4.06L43.14-0.88Q42.20 0.20 40.74 0.20L40.74 0.20Q38.87 0.20 37.76-1.25Q36.65-2.71 36.65-5.39ZM39.95-5.77L39.94-5.19Q39.94-2.34 41.58-2.34L41.58-2.34Q42.71-2.34 43.14-3.20L43.14-3.20L43.14-7.38Q42.73-8.22 41.60-8.22L41.60-8.22Q40.07-8.22 39.95-5.77L39.95-5.77ZM53.84-2.97L53.84-2.97Q53.84-3.39 53.40-3.64Q52.96-3.90 51.73-4.17Q50.50-4.44 49.70-4.89Q48.90-5.33 48.48-5.97Q48.06-6.60 48.06-7.42L48.06-7.42Q48.06-8.88 49.26-9.82Q50.46-10.76 52.40-10.76L52.40-10.76Q54.49-10.76 55.76-9.81Q57.03-8.87 57.03-7.32L57.03-7.32L53.73-7.32Q53.73-8.59 52.39-8.59L52.39-8.59Q51.88-8.59 51.52-8.31Q51.17-8.02 51.17-7.59L51.17-7.59Q51.17-7.15 51.60-6.88Q52.03-6.60 52.97-6.43Q53.92-6.25 54.63-6.01L54.63-6.01Q57.01-5.19 57.01-3.07L57.01-3.07Q57.01-1.62 55.73-0.71Q54.44 0.20 52.40 0.20L52.40 0.20Q51.04 0.20 49.98-0.29Q48.92-0.78 48.32-1.62Q47.72-2.46 47.72-3.39L47.72-3.39L50.80-3.39Q50.82-2.66 51.29-2.32Q51.76-1.98 52.49-1.98L52.49-1.98Q53.16-1.98 53.50-2.26Q53.84-2.53 53.84-2.97Z"></path></g></g></svg><style>@media (prefers-color-scheme: light) { :root { filter: none; } }
@media (prefers-color-scheme: dark) { :root { filter: none; } }
</style></svg>